# xmcd
# 
# Track frame offsets:
#     150
#     5172
#     34857
#     54559
#     71336
#     106568
#     138541
#     168241
#     193851
#     216673
#     235492
# 
# Disc length: 3372
# 
# Revision: 8
# Processed by: cddbd v1.5.2PL0 Copyright (c) Steve Scherf et al.
# Submitted via: fre:ac v1.0.17
# 
DISCID=a00d2a0b
DTITLE=Joe Bonamassa - Beacon Theatre - Live From New York
DYEAR=2012
DGENRE=Blues
TTITLE0=72nd St. Subway Blues
TTITLE1=Slow Train
TTITLE2=Cradle Rock
TTITLE3=When The Fire Hits The Sea
TTITLE4=Midnight Blues
TTITLE5=Dust Bowl
TTITLE6=The River
TTITLE7=I'llTake Care Of You
TTITLE8=Sinner's Prayer
TTITLE9=You Better Watch Yourself
TTITLE10=Steal Your Heart Away
EXTD=
EXTT0=
EXTT1=
EXTT2=
EXTT3=
EXTT4=
EXTT5=
EXTT6=
EXTT7=
EXTT8=
EXTT9=
EXTT10=
PLAYORDER=
